<?xml version="1.0" encoding="UTF-8"?>
<svg version="1.1" xmlns="http://www.w3.org/2000/svg" width="1539" height="747">
<path d="M0 0 C10.29778263 7.89946353 16.50941414 16.67023997 18.390625 29.70703125 C19.59270888 59.7161968 3.83471745 90.88969813 -11 116 C-0.01691153 114.47563709 10.79659053 112.28946685 21.65234375 110.0546875 C23.61846572 109.65243951 25.58464901 109.25049117 27.55088806 108.84881592 C31.78565546 107.98312461 36.02002489 107.11552165 40.25408936 106.24639893 C47.05498669 104.85043932 53.85674921 103.4587295 60.65869141 102.06787109 C63.02063054 101.58487262 65.38256901 101.10187088 67.74450684 100.61886597 C68.93115433 100.37620876 70.11780182 100.13355156 71.34040833 99.88354111 C75.01008394 99.13296979 78.67967297 98.38197644 82.34924316 97.63088989 C100.06210722 94.00597409 117.77813433 90.3967985 135.49609375 86.796875 C136.75445227 86.54119059 138.01281078 86.28550617 139.30930138 86.02207375 C144.37956959 84.99188998 149.44985561 83.96179391 154.52016354 82.93180561 C193.45670404 75.02218199 232.39105087 67.10264197 271.30419922 59.07861328 C296.32996339 53.91938823 321.36912471 48.82619715 346.4079895 43.73099136 C352.28962305 42.53405073 358.17117573 41.33671289 364.05273438 40.1394043 C379.38745431 37.01780576 394.72231987 33.89692291 410.05718994 30.77606201 C411.23086121 30.53720276 412.40453247 30.29834351 413.61376953 30.05224609 C414.78683655 29.81351776 415.95990356 29.57478943 417.16851807 29.3288269 C419.53877267 28.84641938 421.90901192 28.36393642 424.27923584 27.88137817 C430.14692252 26.68684053 436.01484344 25.49348059 441.88330078 24.30273438 C452.73241552 22.09998465 463.5786445 19.88517962 474.41651154 17.6276474 C479.40394469 16.58936339 484.3926806 15.55741901 489.3815155 14.52589417 C491.74776176 14.03470479 494.11335101 13.54033821 496.47822571 13.04258728 C499.74885112 12.35436702 503.02156905 11.67706287 506.29492188 11.00195312 C507.25012222 10.79788345 508.20532257 10.59381378 509.18946838 10.38356018 C514.90696125 9.21781926 520.16099081 8.71862182 526 9 C527 10 527 10 527.0625 12.5625 C527.041875 13.366875 527.02125 14.17125 527 15 C522.12979856 17.19004919 517.27861479 18.91641882 512.1328125 20.35546875 C511.36692307 20.57369293 510.60103363 20.79191711 509.81193542 21.01675415 C507.25092903 21.74502877 504.68802772 22.46637396 502.125 23.1875 C500.27229346 23.71217982 498.41967551 24.23717252 496.56713867 24.76245117 C491.46690722 26.20690461 486.36478047 27.64456046 481.26226807 29.08093262 C477.95218174 30.01347167 474.64274769 30.94829245 471.33349609 31.88378906 C442.57374634 40.01265688 413.78030962 48.00723366 384.93798828 55.83813477 C373.00276515 59.08000564 361.08249864 62.36366355 349.1875 65.75 C335.90255207 69.5228518 322.55541666 73.02925952 309.19067383 76.50634766 C294.56751911 80.31314339 279.96860733 84.20658073 265.375 88.125 C244.73375859 93.66307733 224.09037387 99.19295057 203.4375 104.6875 C202.76198593 104.86722603 202.08647186 105.04695206 201.39048767 105.23212433 C181.237312 110.59253997 161.05827249 115.84268237 140.84326172 120.96557617 C129.89682422 123.74059952 118.97123592 126.58051696 108.0625 129.5 C92.53992475 133.65110881 76.95405836 137.53808372 61.36181641 141.41796875 C51.57681997 143.85350401 41.79385205 146.295571 32.0234375 148.7890625 C30.7015316 149.12633865 30.7015316 149.12633865 29.35292053 149.47042847 C24.97588629 150.58923788 20.60111483 151.71614204 16.22924805 152.85498047 C7.66044526 155.08092998 -0.91440635 157.23420798 -9.54374695 159.21472168 C-13.86187158 160.20962764 -18.17236263 161.23559541 -22.4826355 162.26391602 C-24.55068884 162.7483477 -26.62226653 163.2180112 -28.69729614 163.67163086 C-43.83467211 166.84141288 -43.83467211 166.84141288 -54.46630859 177.41357422 C-55.22548584 178.69385498 -55.22548584 178.69385498 -56 180 C-56.82112253 181.06087495 -57.66025644 182.1085788 -58.53125 183.12890625 C-59.1809375 183.93199219 -59.830625 184.73507813 -60.5 185.5625 C-64.17210966 190.05347732 -67.98546062 194.38683347 -71.890625 198.67578125 C-73.74626657 200.72042335 -75.56756376 202.78784149 -77.375 204.875 C-80.84099086 208.85926987 -84.41388122 212.74180971 -88.00537109 216.61279297 C-90.33346905 219.13342133 -92.56764931 221.69003999 -94.7109375 224.3671875 C-95.84402344 225.67042969 -95.84402344 225.67042969 -97 227 C-97.66 227 -98.32 227 -99 227 C-99.21446777 227.53971436 -99.42893555 228.07942871 -99.64990234 228.63549805 C-101.48474507 231.8489613 -103.98859489 234.25426999 -106.6015625 236.83203125 C-107.15685638 237.38686691 -107.71215027 237.94170258 -108.28427124 238.51335144 C-109.46042442 239.68648789 -110.63900276 240.85719729 -111.81982422 242.02563477 C-113.60303454 243.79075734 -115.37828024 245.56358023 -117.15234375 247.33789062 C-122.35440913 252.52357429 -127.56662475 257.6352917 -133.15771484 262.4050293 C-136.71416298 265.48404807 -140.09156478 268.75919274 -143.5 272 C-148.89516079 277.12982501 -154.3654824 282.13414982 -160 287 C-161.20205499 288.04660852 -162.40388334 289.0934774 -163.60546875 290.140625 C-174.43256042 299.547305 -185.2448031 308.93537795 -196.56982422 317.74145508 C-200.33052167 320.66993461 -204.03452822 323.65713134 -207.71313477 326.68798828 C-217.20802674 334.50040466 -227.04603435 341.78609037 -237 349 C-238.50142238 350.09358486 -240.00272683 351.18733165 -241.50390625 352.28125 C-245.98773131 355.5417202 -250.48974653 358.77621224 -255 362 C-255.78455566 362.56187012 -256.56911133 363.12374023 -257.37744141 363.70263672 C-280.12747965 379.95266403 -303.99235137 394.45393077 -327.875 408.96484375 C-329.33341618 409.85142624 -330.79175224 410.73814053 -332.25 411.625 C-333.31432251 412.27190796 -333.31432251 412.27190796 -334.40014648 412.93188477 C-339.17936443 415.85044575 -343.89944106 418.85235864 -348.60742188 421.88427734 C-360.12932903 429.2986454 -371.85943233 436.2985124 -383.70838928 443.17262268 C-385.42112227 444.16888466 -387.12907071 445.17335753 -388.83691406 446.17797852 C-390.81387021 447.31675775 -392.8134981 448.41799718 -394.84277344 449.46069336 C-401.8429637 453.18143807 -405.02799112 457.65602392 -408.75 464.5625 C-409.33289795 465.60607666 -409.9157959 466.64965332 -410.51635742 467.72485352 C-431.63085246 506.10070974 -455.70145395 554.84620726 -442.96484375 599.640625 C-436.35784569 619.27041987 -424.42864304 631.50631151 -406.3515625 640.94140625 C-354.09853522 666.62856123 -285.26021848 648.3661176 -233.67781067 630.8759613 C-185.98190998 614.56669981 -139.39371973 594.6468388 -94.11523438 572.51708984 C-90.77550327 570.8906722 -87.42778859 569.28163849 -84.078125 567.67578125 C-61.7885614 556.98569723 -39.56911781 546.13012672 -17.74609375 534.51171875 C-14.21088006 532.63176882 -10.65853506 530.78790077 -7.09765625 528.95703125 C4.23046538 523.12704061 15.42267596 517.13637524 26.4777832 510.80322266 C33.05006125 507.05456076 39.70602532 503.51590466 46.4375 500.0625 C55.42106455 495.44166108 64.1650926 490.49636444 72.86328125 485.3605957 C80.16507667 481.05241787 87.52897053 476.87171389 94.9375 472.75 C103.96866578 467.71810381 112.92778532 462.58936667 121.81103516 457.30126953 C125.08221864 455.35665566 128.3606226 453.42431778 131.63818359 451.49047852 C134.42256361 449.84692432 137.2055665 448.20105941 139.98828125 446.5546875 C144.21239247 444.05571986 148.43952111 441.56193487 152.66796875 439.0703125 C154.39022877 438.05371428 156.1124877 437.03711413 157.83447266 436.02005005 C159.55301673 435.00559795 161.27259954 433.99290622 162.9921875 432.98022461 C168.45068687 429.75199961 173.86562228 426.4776095 179.20703125 423.05859375 C180.16730225 422.44693359 181.12757324 421.83527344 182.11694336 421.20507812 C183.90877914 420.0567298 185.69270327 418.89590733 187.46704102 417.72070312 C188.25908936 417.21345703 189.0511377 416.70621094 189.8671875 416.18359375 C190.54894043 415.73556396 191.23069336 415.28753418 191.93310547 414.82592773 C194.61930625 413.75252622 196.2646965 414.22337876 199 415 C200 418 200 418 199.29003906 420.00952148 C197.85344577 422.22612729 196.52438845 423.34701731 194.359375 424.84765625 C193.6257373 425.36465088 192.89209961 425.88164551 192.13623047 426.41430664 C191.34877441 426.95821045 190.56131836 427.50211426 189.75 428.0625 C188.0998955 429.22680771 186.45147438 430.39350459 184.8046875 431.5625 C183.98709961 432.14257812 183.16951172 432.72265625 182.32714844 433.3203125 C179.10435289 435.64645952 175.98096664 438.08353817 172.875 440.5625 C161.50413131 449.60680218 149.77912601 458.18224497 138.07202148 466.78393555 C133.64072093 470.04260157 129.22921183 473.32482755 124.84033203 476.64038086 C118.14557378 481.69762619 111.36913983 486.61338963 104.49780273 491.42797852 C99.27404835 495.08966663 94.09877272 498.81337274 88.9375 502.5625 C82.8151441 507.00122436 76.64465351 511.35511563 70.39916992 515.61865234 C63.37036397 520.41725535 56.39344311 525.28976993 49.41918945 530.16723633 C42.67390751 534.87251647 35.85948265 539.46305602 29 544 C28.41684021 544.38616486 27.83368042 544.77232971 27.23284912 545.17019653 C11.03540157 555.89411092 -5.19876317 566.52458365 -21.78466797 576.64160156 C-24.57373895 578.35180554 -27.34359096 580.09142959 -30.11206055 581.8347168 C-52.60296085 595.99252599 -75.62557679 609.18940325 -99.02734375 621.77734375 C-102.88528966 623.85325933 -106.73172422 625.94783126 -110.56640625 628.06640625 C-178.99076148 665.84548324 -261.44107223 705.85599994 -341.17578125 706.203125 C-342.22162888 706.20882507 -343.2674765 706.21452515 -344.34501648 706.22039795 C-346.55104581 706.22979295 -348.75708883 706.23635987 -350.96313477 706.24023438 C-354.26540066 706.24986267 -357.56702228 706.28090787 -360.86914062 706.3125 C-378.5507275 706.4017595 -395.7172941 704.92770207 -412.8125 700.1875 C-413.76842041 699.92815674 -414.72434082 699.66881348 -415.70922852 699.40161133 C-437.54201751 693.33623489 -457.2771633 683.60798092 -474 668 C-474 667.34 -474 666.68 -474 666 C-474.66 666 -475.32 666 -476 666 C-498.61127825 642.57605424 -508.5677709 609.55269654 -508.1484375 577.515625 C-507.10438682 552.788109 -501.64014142 529.47348176 -494 506 C-515.42526306 517.01872045 -515.42526306 517.01872045 -536.76782227 528.19628906 C-544.71036385 532.3911645 -552.69586723 536.50302054 -560.67907715 540.61978149 C-567.44201282 544.10769694 -574.18940809 547.6155507 -580.875 551.25 C-587.35941048 554.73141448 -593.98050448 557.87726505 -600.63427734 561.02050781 C-611.16724174 566.02504675 -621.57817224 571.26909081 -632 576.5 C-645.52239631 583.28169665 -659.05526848 590.01929888 -672.74267578 596.46337891 C-676.77883904 598.36741215 -680.80929079 600.28334517 -684.83984375 602.19921875 C-715.93729012 616.97493395 -747.17950142 631.3993359 -778.56640625 645.54931641 C-783.02232951 647.55837133 -787.47648715 649.57130499 -791.93008423 651.58551025 C-811.35767533 660.37037816 -830.82595073 669.03777138 -850.41552734 677.45556641 C-854.08943704 679.03853553 -857.75843106 680.63238466 -861.42578125 682.23046875 C-877.77959901 689.35369175 -894.18969138 696.33369134 -910.65722656 703.18994141 C-913.69966924 704.45705866 -916.74046107 705.72805055 -919.78027344 707.00146484 C-939.68921289 715.34090621 -959.63434049 723.54342473 -979.78979492 731.27124023 C-981.16199134 731.79789781 -982.53414388 732.32466972 -983.90625 732.8515625 C-984.5638179 733.10363968 -985.2213858 733.35571686 -985.89888 733.61543274 C-991.85159556 735.91181438 -997.74449718 738.3481043 -1003.61975098 740.83560181 C-1008.78607569 743 -1008.78607569 743 -1011 743 C-1009.62686844 735.960894 -1007.47268631 729.54967911 -1004.875 722.875 C-1001.93497609 715.18458109 -999.09173212 707.48096435 -996.4375 699.6875 C-992.6912283 688.83038804 -988.82781669 678.01422474 -984.89260864 667.22427368 C-984.17496442 665.24811106 -983.46338856 663.26973371 -982.75802612 661.28915405 C-981.75733357 658.48341089 -980.73486024 655.68652211 -979.70703125 652.890625 C-979.40824066 652.03851944 -979.10945007 651.18641388 -978.80160522 650.30848694 C-978.50718536 649.52122726 -978.2127655 648.73396759 -977.90942383 647.92285156 C-977.66041824 647.23499573 -977.41141266 646.54713989 -977.15486145 645.83843994 C-974.68716217 641.91007527 -970.14924526 640.54719532 -965.93554688 639.08984375 C-964.94729919 638.74475266 -963.95905151 638.39966156 -962.94085693 638.04411316 C-961.87756165 637.67893082 -960.81426636 637.31374847 -959.71875 636.9375 C-958.04960541 636.35619072 -958.04960541 636.35619072 -956.34674072 635.76313782 C-953.96690457 634.93444302 -951.58628352 634.10799945 -949.20495605 633.28359985 C-943.00142539 631.1343568 -936.80516489 628.9644089 -930.609375 626.79296875 C-928.79617767 626.15768501 -928.79617767 626.15768501 -926.9463501 625.50956726 C-915.16224234 621.37138762 -903.48597016 617.00143004 -891.84228516 612.48291016 C-887.20905262 610.68969442 -882.56320341 608.92980549 -877.91796875 607.16796875 C-849.54482357 596.40324079 -821.26657804 585.44484312 -793.19836426 573.90356445 C-790.76379382 572.90291531 -788.32868431 571.9035844 -785.89355469 570.90429688 C-760.50327978 560.48126788 -735.17237338 549.93948746 -710 539 C-709.20696472 538.65580017 -708.41392944 538.31160034 -707.59686279 537.95697021 C-683.65561962 527.56446158 -659.84574148 516.9153206 -636.16943359 505.93261719 C-632.8813957 504.40750751 -629.59067496 502.88833813 -626.2983551 501.37249756 C-605.80110511 491.93469107 -585.38043499 482.30140494 -565.24438477 472.11157227 C-559.70827611 469.32269451 -554.11829607 466.64808171 -548.52905273 463.96777344 C-538.15512717 458.99257574 -527.82834144 453.97211256 -517.68164062 448.54296875 C-512.23361751 445.63035341 -506.72732467 442.85846257 -501.1875 440.125 C-493.13623418 436.1366742 -485.19146881 431.97709838 -477.36108398 427.5690918 C-472.76373439 424.98912408 -468.19751752 422.60079607 -463.3515625 420.51953125 C-447.02506629 413.19542933 -439.59805245 401.97578977 -430.82861328 387.08789062 C-428.57399317 383.28062291 -426.16948002 379.59885695 -423.6875 375.9375 C-423.30835449 375.36878174 -422.92920898 374.80006348 -422.53857422 374.21411133 C-412.90213047 359.80880008 -402.33034503 346.05441798 -391.77734375 332.31640625 C-390.25269352 330.32933463 -388.73377738 328.33815918 -387.21875 326.34375 C-381.63214335 319.01586335 -375.86127325 311.85364143 -370.03125 304.71875 C-367.62150201 301.76888609 -365.24029419 298.79819922 -362.875 295.8125 C-359.38179651 291.42944888 -355.77033076 287.15430133 -352.13623047 282.88818359 C-349.20623318 279.44404516 -346.33675907 275.959344 -343.5 272.4375 C-339.3754401 267.36680449 -335.00383401 262.56807521 -330.5625 257.77734375 C-327.90948974 254.90190123 -325.32881901 251.97466998 -322.765625 249.01953125 C-314.04615385 239.04615385 -314.04615385 239.04615385 -311 236 C-320.128056 237.48087058 -329.05114673 239.66954847 -338.0078125 241.9375 C-339.58478648 242.33386667 -341.16185097 242.72987341 -342.73899841 243.12554932 C-346.10774482 243.97130872 -349.47596805 244.81910845 -352.84378052 245.6685791 C-360.95879834 247.71523181 -369.07649339 249.75122345 -377.19414711 251.78739166 C-379.05271816 252.25361041 -380.91125754 252.71995545 -382.76976585 253.18642426 C-395.60892526 256.40863625 -408.4541053 259.60511575 -421.30859375 262.765625 C-422.07388838 262.95379665 -422.83918301 263.14196831 -423.62766838 263.33584213 C-428.18685739 264.45659914 -432.7462977 265.57633156 -437.30578995 266.69585419 C-461.53892891 272.64641593 -485.74154637 278.70392731 -509.91791534 284.8809967 C-528.55924289 289.64300967 -547.22616042 294.26624298 -565.94473267 298.71466064 C-583.70252531 302.93701923 -601.42032827 307.31115182 -619.125 311.75 C-620.1344228 312.00307796 -620.1344228 312.00307796 -621.16423798 312.26126862 C-627.33395403 313.80836965 -633.50334926 315.35674758 -639.67242432 316.90640259 C-649.04896396 319.26149674 -658.42795827 321.60658949 -667.80859375 323.9453125 C-689.62873291 329.38671001 -711.44729406 334.83317565 -733.2421875 340.375 C-733.96680994 340.55923586 -734.69143238 340.74347172 -735.43801308 340.93329048 C-739.12522814 341.87083105 -742.81238809 342.8085883 -746.49954224 343.74636841 C-773.3506964 350.57517476 -800.22393399 357.30787795 -827.125 363.9375 C-828.71133478 364.3286721 -830.29766901 364.71984638 -831.88400269 365.11102295 C-835.64139072 366.03729658 -839.39911322 366.96220116 -843.15712929 367.88592339 C-844.52706382 368.22270053 -845.89693851 368.55972123 -847.26674461 368.89702034 C-851.5088259 369.94113265 -855.75361082 370.97356084 -860 372 C-861.79531158 372.44027023 -861.79531158 372.44027023 -863.62689209 372.88943481 C-864.77595032 373.16512299 -865.92500854 373.44081116 -867.10888672 373.72485352 C-868.1244162 373.97082779 -869.13994568 374.21680206 -870.18624878 374.4702301 C-872.86915901 374.97536541 -875.27846763 375.10174335 -878 375 C-871.99449346 357.81175924 -865.83488766 340.68193892 -859.51660156 323.60610962 C-858.79676753 321.65919877 -858.07883293 319.71158459 -857.36279297 317.76327515 C-856.35031654 315.01064883 -855.3305295 312.26084494 -854.30859375 309.51171875 C-854.003806 308.67974976 -853.69901825 307.84778076 -853.38499451 306.99060059 C-851.22894377 301.22894377 -851.22894377 301.22894377 -849 299 C-846.91664124 298.35343933 -846.91664124 298.35343933 -844.29321289 297.78588867 C-843.30008087 297.56718109 -842.30694885 297.34847351 -841.28372192 297.12313843 C-840.19107025 296.89043243 -839.09841858 296.65772644 -837.97265625 296.41796875 C-836.25609329 296.04304794 -836.25609329 296.04304794 -834.50485229 295.66055298 C-831.35487756 294.97385296 -828.20356725 294.29371431 -825.05161667 293.61615372 C-821.69081899 292.89190338 -818.3319261 292.15893029 -814.97290039 291.42651367 C-810.08323166 290.36099931 -805.19307157 289.29779937 -800.3022337 288.23766422 C-788.68000604 285.71810236 -777.06732696 283.15576467 -765.45532227 280.58953857 C-739.44833702 274.84495309 -713.4322641 269.1415835 -687.41723633 263.43356323 C-666.30553271 258.80132175 -645.19481835 254.16462063 -624.0859375 249.51953125 C-623.03434763 249.28812565 -621.98275776 249.05672005 -620.89930153 248.81830215 C-612.336268 246.93393659 -603.77327956 245.04936611 -595.21030807 243.16471863 C-550.63824913 233.35479356 -550.63824913 233.35479356 -529.44921875 228.71484375 C-528.69422907 228.54951645 -527.93923939 228.38418915 -527.16137123 228.21385193 C-522.71099582 227.23936953 -518.26057423 226.2650981 -513.81014633 225.29085541 C-487.2415988 219.47467358 -460.68120465 213.62227702 -434.125 207.75 C-409.51309896 202.30776963 -384.90062821 196.86819281 -360.28149414 191.45875549 C-358.30078058 191.0235321 -356.32006769 190.58830567 -354.33935547 190.15307617 C-353.36234051 189.93840856 -352.38532555 189.72374094 -351.37870407 189.50256824 C-345.54557402 188.22028739 -339.71358546 186.93296215 -333.8825264 185.64129734 C-329.20467379 184.60523601 -324.52632417 183.57143546 -319.84765625 182.5390625 C-318.94517151 182.33990675 -318.04268677 182.140751 -317.112854 181.93556023 C-305.92047994 179.46996323 -294.71511568 177.09879528 -283.47367668 174.86760902 C-278.98117521 173.97207071 -274.49374149 173.05131631 -270.00509644 172.13668823 C-266.63814205 171.46505625 -263.26499896 170.83886936 -259.88891602 170.21508789 C-247.57961768 167.79174924 -240.81930715 164.99379905 -233 155 C-231.78102467 153.88187198 -230.53717109 152.78889446 -229.25 151.75 C-224.39294291 147.61548033 -219.99352086 143.01798213 -215.5090332 138.48950195 C-211.68060674 134.6379808 -207.80327127 130.92701571 -203.64453125 127.4296875 C-201.87314877 125.88972078 -200.25486368 124.25071202 -198.625 122.5625 C-196 120 -196 120 -194 120 C-194 119.34 -194 118.68 -194 118 C-192.70703125 116.6953125 -192.70703125 116.6953125 -190.8125 115.125 C-188.02606221 112.7687842 -185.30329623 110.36953873 -182.64453125 107.87109375 C-182.06405029 107.32630371 -181.48356934 106.78151367 -180.88549805 106.22021484 C-179.71830338 105.12116453 -178.55435633 104.01865429 -177.39379883 102.91259766 C-173.22023676 99 -173.22023676 99 -171 99 C-171 98.34 -171 97.68 -171 97 C-169.3203125 95.2734375 -169.3203125 95.2734375 -167.125 93.375 C-166.40570312 92.74335937 -165.68640625 92.11171875 -164.9453125 91.4609375 C-163 90 -163 90 -161 90 C-161 89.34 -161 88.68 -161 88 C-159.6015625 86.58984375 -159.6015625 86.58984375 -157.625 84.9375 C-154.49359559 82.27690114 -151.41328793 79.57915292 -148.375 76.8125 C-142.59928462 71.6028578 -136.69509662 66.54963896 -130.77148438 61.50976562 C-129.06779321 60.05777746 -127.36932159 58.59990429 -125.671875 57.140625 C-118.31033819 50.83152762 -110.76038666 44.81231426 -103 39 C-101.92008789 38.18909912 -101.92008789 38.18909912 -100.81835938 37.36181641 C-27.41160481 -17.63182127 -27.41160481 -17.63182127 0 0 Z M-45.359375 51.98046875 C-46.82706897 53.0437711 -48.29051787 54.11295387 -49.75 55.1875 C-50.53149414 55.75774902 -51.31298828 56.32799805 -52.11816406 56.91552734 C-58.83277789 61.83379615 -65.44640403 66.8693312 -72 72 C-73.17444644 72.91540657 -74.34892665 73.83076982 -75.5234375 74.74609375 C-85.81129651 82.78016921 -95.89841915 91.02182656 -105.78881836 99.54077148 C-112.0027812 104.8838023 -118.27195449 110.17933691 -124.80859375 115.125 C-125.53175781 115.74375 -126.25492188 116.3625 -127 117 C-127 117.66 -127 118.32 -127 119 C-127.59458008 119.27239502 -128.18916016 119.54479004 -128.80175781 119.82543945 C-130.94440556 120.97029488 -132.42006637 122.12644698 -134.171875 123.79296875 C-134.74993896 124.33751709 -135.32800293 124.88206543 -135.92358398 125.44311523 C-136.52630127 126.01876221 -137.12901855 126.59440918 -137.75 127.1875 C-139.00574332 128.37060639 -140.26224834 129.55290486 -141.51953125 130.734375 C-142.12104004 131.30091797 -142.72254883 131.86746094 -143.34228516 132.45117188 C-146.48599325 135.38838603 -149.73087227 138.2041313 -153 141 C-153.67160156 141.5775 -154.34320312 142.155 -155.03515625 142.75 C-156.68779307 144.16936204 -158.34353732 145.58510479 -160 147 C-157.50920159 148.2453992 -156.68296505 147.89217892 -153.99804688 147.30664062 C-153.16580093 147.12869461 -152.33355499 146.9507486 -151.47608948 146.76741028 C-150.56616745 146.56572739 -149.65624542 146.36404449 -148.71875 146.15625 C-147.76947128 145.95178757 -146.82019257 145.74732513 -145.84214783 145.53666687 C-142.72663631 144.8643381 -139.61328334 144.18256645 -136.5 143.5 C-132.2102338 142.56624215 -127.91969143 141.63609436 -123.62890625 140.70703125 C-122.55616959 140.47413895 -121.48343292 140.24124664 -120.37818909 140.001297 C-113.77470653 138.57489911 -107.16175217 137.22355653 -100.52734375 135.94921875 C-98.96222295 135.64461673 -97.39711822 135.3399321 -95.83203125 135.03515625 C-93.65729362 134.61240975 -91.48235575 134.19566678 -89.30273438 133.79882812 C-78.29588349 131.79285813 -73.20612029 129.55705195 -66.76489258 120.38061523 C-66.28560303 119.67751221 -65.80631348 118.97440918 -65.3125 118.25 C-64.79776123 117.5062915 -64.28302246 116.76258301 -63.75268555 115.99633789 C-62.15455968 113.67332423 -60.57380021 111.33955238 -59 109 C-58.51273438 108.27603027 -58.02546875 107.55206055 -57.5234375 106.80615234 C-36.60643351 78.41649748 -36.60643351 78.41649748 -27.41015625 46.703125 C-27.60480469 46.14109375 -27.79945313 45.5790625 -28 45 C-34.39950158 42.68607117 -40.28134915 48.42976391 -45.359375 51.98046875 Z M-136.68359375 190.34375 C-138.49525024 190.84044189 -138.49525024 190.84044189 -140.34350586 191.34716797 C-141.70840954 191.73059567 -143.07306481 192.11490849 -144.4375 192.5 C-155.60915888 195.64206407 -166.79451458 198.43632468 -178.14977837 200.84381866 C-182.21204294 201.71361684 -186.26573704 202.62275104 -190.31952 203.531147 C-193.68359308 204.28112834 -197.04905058 205.00442498 -200.43136597 205.66772461 C-220.59180477 209.64378768 -232.02290308 216.0584136 -245 232 C-246.25701236 233.460338 -247.52044954 234.91517857 -248.79125977 236.36352539 C-249.32815933 236.97772842 -249.8650589 237.59193146 -250.41822815 238.2247467 C-253.17192122 241.31526997 -256.02767684 244.3085461 -258.875 247.3125 C-263.72437206 252.46344039 -268.3112663 257.72638195 -272.7265625 263.2578125 C-275.37343948 266.45043731 -278.16589118 269.47417596 -281 272.5 C-285.44469296 277.2520647 -289.65381047 282.12359556 -293.73046875 287.19921875 C-296.22847518 290.28195646 -298.79682974 293.29695351 -301.375 296.3125 C-306.13452143 301.90149537 -310.69001107 307.63010825 -315.19921875 313.421875 C-317.52759734 316.40910573 -319.89730203 319.36033815 -322.27954102 322.3046875 C-332.58070086 335.05671271 -342.37681719 348.2031497 -351.875 361.5625 C-352.38095703 362.27067871 -352.88691406 362.97885742 -353.40820312 363.70849609 C-355.33775303 366.44832203 -356.93416687 368.8025006 -358 372 C-354.41112663 370.65993481 -351.23890486 369.056065 -347.97265625 367.05859375 C-347.02302002 366.47972412 -346.07338379 365.90085449 -345.0949707 365.30444336 C-344.09425537 364.68835205 -343.09354004 364.07226074 -342.0625 363.4375 C-341.02633545 362.80271729 -339.9901709 362.16793457 -338.92260742 361.51391602 C-331.85136323 357.16998603 -324.82764197 352.7651562 -317.88037109 348.22509766 C-315.68145562 346.79246226 -313.47560147 345.37081128 -311.26953125 343.94921875 C-288.82823408 329.4656146 -267.07536298 314.17392068 -246.09130859 297.64160156 C-244.11688908 296.0917537 -242.13305239 294.55512926 -240.14453125 293.0234375 C-233.71871526 288.05862193 -227.59767935 282.92483755 -221.640625 277.39453125 C-219.01768756 275.01603917 -216.32124024 272.78131536 -213.5625 270.5625 C-208.43315228 266.42238362 -203.59614153 262.02953064 -198.765625 257.55078125 C-196.55944053 255.51598117 -194.33367739 253.52353762 -192.0625 251.5625 C-187.8832442 247.94164163 -183.84317099 244.17482147 -179.79077148 240.41357422 C-176.77632335 237.62119703 -173.73801011 234.87050288 -170.625 232.1875 C-167.55143425 229.53188775 -164.69673353 226.72051909 -161.85400391 223.82128906 C-160.15653716 222.15377498 -158.41285419 220.62189249 -156.59375 219.08984375 C-150.4274875 213.72917361 -144.75236811 207.85826058 -139 202.0625 C-137.83226626 200.88973991 -136.66429926 199.71721202 -135.49609375 198.54492188 C-132.66136766 195.69928311 -129.82981176 192.85052547 -127 190 C-130.64111355 188.70720742 -133.01217628 189.30651119 -136.68359375 190.34375 Z " fill="#65CB00" transform="translate(1011,4)"/>
<path d="M0 0 C-1.28750965 2.75164789 -2.69658758 5.0478828 -4.6171875 7.3984375 C-5.13547119 8.03547607 -5.65375488 8.67251465 -6.18774414 9.32885742 C-6.74453857 10.00408447 -7.30133301 10.67931152 -7.875 11.375 C-8.45435303 12.08180908 -9.03370605 12.78861816 -9.63061523 13.5168457 C-21.16318849 27.53692898 -33.00187926 41.30652271 -46 54 C-46.48863525 54.62543701 -46.97727051 55.25087402 -47.48071289 55.89526367 C-51.1945761 58.99800761 -55.18875447 59.87743251 -59.80859375 61.140625 C-60.84463242 61.43294006 -61.88067108 61.72525513 -62.94810486 62.02642822 C-78.69723342 66.39658418 -94.59429733 70.22700927 -110.46789551 74.11346436 C-113.94392657 74.96624083 -117.41839164 75.82530199 -120.89286137 76.68441391 C-124.29239416 77.52433927 -127.69274302 78.36092073 -131.09335136 79.1964798 C-132.69162453 79.58946596 -134.28969243 79.98328809 -135.88752937 80.37804413 C-144.80182873 82.57770798 -153.7170244 84.58478583 -162.72917175 86.34124756 C-166.78470035 87.15804048 -170.76887373 88.14309134 -174.7578125 89.234375 C-175.50165192 89.43317764 -176.24549133 89.63198029 -177.01187134 89.83680725 C-178.58030999 90.25610263 -180.14825188 90.67726051 -181.71569824 91.10025024 C-185.8777677 92.22269313 -190.04401774 93.32931184 -194.2109375 94.43359375 C-195.04298706 94.65411911 -195.87503662 94.87464447 -196.7322998 95.10185242 C-205.4661379 97.40514967 -214.23942693 99.52678151 -223.03564453 101.57910156 C-228.95469772 102.97235145 -234.818934 104.49513249 -240.66796875 106.15625 C-254.72245732 110.12427939 -268.92609014 113.54635171 -283.0961647 117.07329941 C-286.44251748 117.90665401 -289.78838205 118.74196023 -293.13427258 119.57716846 C-310.75456292 123.97497495 -328.38077778 128.34842943 -346.015625 132.6875 C-346.7787991 132.87528708 -347.54197319 133.06307415 -348.32827377 133.25655174 C-355.17509398 134.94109299 -362.02214095 136.62471134 -368.8694458 138.30728149 C-390.91312527 143.7251 -412.92399557 149.26149875 -434.91710663 154.88079453 C-453.55869974 159.64289028 -472.22589034 164.2661788 -490.94473267 168.71466064 C-508.70252531 172.93701923 -526.42032827 177.31115182 -544.125 181.75 C-545.1344228 182.00307796 -545.1344228 182.00307796 -546.16423798 182.26126862 C-552.33395403 183.80836965 -558.50334926 185.35674758 -564.67242432 186.90640259 C-574.04896396 189.26149674 -583.42795827 191.60658949 -592.80859375 193.9453125 C-614.62873291 199.38671001 -636.44729406 204.83317565 -658.2421875 210.375 C-658.96680994 210.55923586 -659.69143238 210.74347172 -660.43801308 210.93329048 C-664.12522814 211.87083105 -667.81238809 212.8085883 -671.49954224 213.74636841 C-698.3506964 220.57517476 -725.22393399 227.30787795 -752.125 233.9375 C-753.71133478 234.3286721 -755.29766901 234.71984638 -756.88400269 235.11102295 C-760.64139072 236.03729658 -764.39911322 236.96220116 -768.15712929 237.88592339 C-769.52706382 238.22270053 -770.89693851 238.55972123 -772.26674461 238.89702034 C-776.5088259 239.94113265 -780.75361082 240.97356084 -785 242 C-786.19687439 242.29351349 -787.39374878 242.58702698 -788.62689209 242.88943481 C-789.77595032 243.16512299 -790.92500854 243.44081116 -792.10888672 243.72485352 C-793.63218094 244.09381493 -793.63218094 244.09381493 -795.18624878 244.4702301 C-797.86915901 244.97536541 -800.27846763 245.10174335 -803 245 C-796.99449346 227.81175924 -790.83488766 210.68193892 -784.51660156 193.60610962 C-783.79676753 191.65919877 -783.07883293 189.71158459 -782.36279297 187.76327515 C-781.35031654 185.01064883 -780.3305295 182.26084494 -779.30859375 179.51171875 C-779.003806 178.67974976 -778.69901825 177.84778076 -778.38499451 176.99060059 C-776.22894377 171.22894377 -776.22894377 171.22894377 -774 169 C-771.91664124 168.35343933 -771.91664124 168.35343933 -769.29321289 167.78588867 C-768.30008087 167.56718109 -767.30694885 167.34847351 -766.28372192 167.12313843 C-765.19107025 166.89043243 -764.09841858 166.65772644 -762.97265625 166.41796875 C-761.82828094 166.16802155 -760.68390564 165.91807434 -759.50485229 165.66055298 C-756.35487756 164.97385296 -753.20356725 164.29371431 -750.05161667 163.61615372 C-746.69081899 162.89190338 -743.3319261 162.15893029 -739.97290039 161.42651367 C-735.08323166 160.36099931 -730.19307157 159.29779937 -725.3022337 158.23766422 C-713.68000604 155.71810236 -702.06732696 153.15576467 -690.45532227 150.58953857 C-664.44833702 144.84495309 -638.4322641 139.1415835 -612.41723633 133.43356323 C-591.30553271 128.80132175 -570.19481835 124.16462063 -549.0859375 119.51953125 C-547.50855269 119.17242285 -547.50855269 119.17242285 -545.89930153 118.81830215 C-537.336268 116.93393659 -528.77327956 115.04936611 -520.21030807 113.16471863 C-475.63824913 103.35479356 -475.63824913 103.35479356 -454.44921875 98.71484375 C-453.69422907 98.54951645 -452.93923939 98.38418915 -452.16137123 98.21385193 C-447.71099582 97.23936953 -443.26057423 96.2650981 -438.81014633 95.29085541 C-412.2415988 89.47467358 -385.68120465 83.62227702 -359.125 77.75 C-316.57430372 68.3411091 -274.01467052 58.97321001 -231.44852638 49.63445568 C-225.98976036 48.43678804 -220.53119304 47.23821901 -215.07275391 46.0390625 C-208.64040535 44.62601714 -202.20750941 43.21548733 -195.7741394 41.80709839 C-193.57501966 41.32537027 -191.37605472 40.84293472 -189.17727661 40.35964966 C-177.19146837 37.72602784 -165.18891565 35.21188346 -153.15171814 32.82369995 C-144.06289341 31.01971758 -134.98978068 29.14982388 -125.92749023 27.21704102 C-124.2805778 26.86679559 -122.63312148 26.51909701 -120.98510742 26.17407227 C-110.23151839 23.92232976 -99.56699581 21.40716386 -88.92162132 18.69051552 C-71.51561223 14.25354782 -54.00094726 10.5210054 -36.39709473 6.96081543 C-33.29863021 6.33239961 -30.20160013 5.69706578 -27.10457039 5.06162262 C-23.38535661 4.29885472 -19.66537316 3.53987487 -15.9453125 2.78125 C-15.24616856 2.63835037 -14.54702461 2.49545074 -13.82669449 2.34822083 C-11.87203567 1.94943108 -9.91674649 1.55373476 -7.96142578 1.15820312 C-6.30084641 0.82133484 -6.30084641 0.82133484 -4.60671997 0.47766113 C-2 0 -2 0 0 0 Z " fill="#4B286C" transform="translate(936,134)"/>
<path d="M0 0 C1 1 1 1 1.0625 3.5625 C1.041875 4.366875 1.02125 5.17125 1 6 C-3.87020144 8.19004919 -8.72138521 9.91641882 -13.8671875 11.35546875 C-14.63307693 11.57369293 -15.39896637 11.79191711 -16.18806458 12.01675415 C-18.74907097 12.74502877 -21.31197228 13.46637396 -23.875 14.1875 C-25.72770654 14.71217982 -27.58032449 15.23717252 -29.43286133 15.76245117 C-34.53309278 17.20690461 -39.63521953 18.64456046 -44.73773193 20.08093262 C-48.04781826 21.01347167 -51.35725231 21.94829245 -54.66650391 22.88378906 C-83.42625366 31.01265688 -112.21969038 39.00723366 -141.06201172 46.83813477 C-152.99723485 50.08000564 -164.91750136 53.36366355 -176.8125 56.75 C-190.09744793 60.5228518 -203.44458334 64.02925952 -216.80932617 67.50634766 C-231.43248089 71.31314339 -246.03139267 75.20658073 -260.625 79.125 C-281.26624141 84.66307733 -301.90962613 90.19295057 -322.5625 95.6875 C-323.23801407 95.86722603 -323.91352814 96.04695206 -324.60951233 96.23212433 C-344.762688 101.59253997 -364.94172751 106.84268237 -385.15673828 111.96557617 C-396.10317578 114.74059952 -407.02876408 117.58051696 -417.9375 120.5 C-433.45715762 124.65032856 -449.04007649 128.53664195 -464.62939453 132.41577148 C-477.15289485 135.53291723 -489.66758823 138.68129227 -502.16918945 141.88519287 C-504.79286848 142.55746973 -507.41691572 143.22829383 -510.04101562 143.89892578 C-518.38001584 146.03239837 -526.714195 148.18275841 -535.04029846 150.36607361 C-539.04035761 151.41388522 -543.04221854 152.45471229 -547.04428101 153.49484253 C-548.95863741 153.99450762 -550.87208993 154.49764985 -552.78457642 155.00442505 C-555.4258541 155.70418644 -558.06990347 156.39235997 -560.71484375 157.078125 C-561.49812042 157.28894211 -562.28139709 157.49975922 -563.08840942 157.71696472 C-566.79922462 158.66701956 -569.34169572 159.12819743 -573 158 C-572.6282666 157.50298584 -572.2565332 157.00597168 -571.87353516 156.49389648 C-562.9857832 144.58649998 -554.46481482 132.54551231 -546.45703125 120.03125 C-545.8379187 119.06409058 -545.8379187 119.06409058 -545.20629883 118.07739258 C-544.42294718 116.85012581 -543.64265343 115.62089989 -542.8659668 114.3894043 C-538.99785567 108.29813776 -538.99785567 108.29813776 -535.8215332 107.34912109 C-534.45001099 107.06415771 -534.45001099 107.06415771 -533.05078125 106.7734375 C-531.99640366 106.55067139 -530.94202606 106.32790527 -529.85569763 106.09838867 C-528.68644241 105.85967041 -527.51718719 105.62095215 -526.3125 105.375 C-525.07432022 105.11630127 -523.83614044 104.85760254 -522.56044006 104.59106445 C-519.10706574 103.87027023 -515.65165392 103.15970705 -512.19575882 102.45111084 C-509.23898047 101.84365124 -506.28339007 101.23051183 -503.32772541 100.61766052 C-474.68884666 94.68265881 -446.00431177 88.97245138 -417.32073879 83.25827312 C-393.71958284 78.55636482 -370.12927864 73.80891522 -346.5625 68.9375 C-345.89505138 68.79955898 -345.22760277 68.66161797 -344.53992844 68.51949692 C-339.09887859 67.39491766 -333.65792433 66.2698756 -328.21714592 65.14398384 C-309.89960256 61.3534997 -291.57412723 57.60174665 -273.24866867 53.84975052 C-270.71523475 53.33097744 -268.18184213 52.81200327 -265.64846802 52.29293823 C-235.77053817 46.17126882 -205.88570086 40.08360315 -176 34 C-173.66204812 33.52405912 -171.32409646 33.04811715 -168.98614502 32.57217407 C-151.30515518 28.97287149 -133.62399014 25.37442987 -115.94281006 21.77606201 C-114.76913879 21.53720276 -113.59546753 21.29834351 -112.38623047 21.05224609 C-111.21316345 20.81351776 -110.04009644 20.57478943 -108.83148193 20.3288269 C-106.46122733 19.84641938 -104.09098808 19.36393642 -101.72076416 18.88137817 C-95.85307748 17.68684053 -89.98515656 16.49348059 -84.11669922 15.30273438 C-73.26758448 13.09998465 -62.4213555 10.88517962 -51.58348846 8.6276474 C-46.59605531 7.58936339 -41.6073194 6.55741901 -36.6184845 5.52589417 C-34.25223824 5.03470479 -31.88664899 4.54033821 -29.52177429 4.04258728 C-26.25114888 3.35436702 -22.97843095 2.67706287 -19.70507812 2.00195312 C-18.74987778 1.79788345 -17.79467743 1.59381378 -16.81053162 1.38356018 C-11.09303875 0.21781926 -5.83900919 -0.28137818 0 0 Z " fill="#4B286C" transform="translate(1537,13)"/>
</svg>
